<?xml version="1.0" encoding="utf-8" standalone="no"?>
<!DOCTYPE svg PUBLIC "-//W3C//DTD SVG 1.1//EN"
  "http://www.w3.org/Graphics/SVG/1.1/DTD/svg11.dtd">
<svg xmlns:xlink="http://www.w3.org/1999/xlink" width="591.66pt" height="301.119236pt" viewBox="0 0 591.66 301.119236" xmlns="http://www.w3.org/2000/svg" version="1.1">
 <metadata>
  <rdf:RDF xmlns:dc="http://purl.org/dc/elements/1.1/" xmlns:cc="http://creativecommons.org/ns#" xmlns:rdf="http://www.w3.org/1999/02/22-rdf-syntax-ns#">
   <cc:Work>
    <dc:type rdf:resource="http://purl.org/dc/dcmitype/StillImage"/>
    <dc:date>2026-09-11T02:39:18.184382</dc:date>
    <dc:format>image/svg+xml</dc:format>
    <dc:creator>
     <cc:Agent>
      <dc:title>Matplotlib v3.10.8, https://matplotlib.org/</dc:title>
     </cc:Agent>
    </dc:creator>
   </cc:Work>
  </rdf:RDF>
 </metadata>
 <defs>
  <style type="text/css">*{stroke-linejoin: round; stroke-linecap: butt}</style>
 </defs>
 <g id="figure_1">
  <g id="patch_1">
   <path d="M 0 301.119236 
L 591.66 301.119236 
L 591.66 0 
L 0 0 
z
" style="fill: #ffffff"/>
  </g>
  <g id="axes_1">
   <g id="patch_2">
    <path d="M 147.720792 152.601584 
C 151.219174 152.601584 154.574741 151.211662 157.04847 148.737933 
C 159.5222 146.264204 160.912121 142.908636 160.912121 139.410255 
C 160.912121 135.911874 159.5222 132.556306 157.04847 130.082577 
C 154.574741 127.608848 151.219174 126.218926 147.720792 126.218926 
C 144.222411 126.218926 140.866843 127.608848 138.393114 130.082577 
C 135.919385 132.556306 134.529463 135.911874 134.529463 139.410255 
C 134.529463 142.908636 135.919385 146.264204 138.393114 148.737933 
C 140.866843 151.211662 144.222411 152.601584 147.720792 152.601584 
L 147.720792 152.601584 
z
" clip-path="url(#pc23859a164)" style="fill: none; stroke: #000000; stroke-width: 0.8; stroke-linejoin: miter"/>
   </g>
   <g id="patch_3">
    <path d="M 147.720792 165.792913 
C 154.717555 165.792913 161.42869 163.01307 166.376149 158.065611 
C 171.323607 153.118153 174.10345 146.407018 174.10345 139.410255 
C 174.10345 132.413492 171.323607 125.702357 166.376149 120.754899 
C 161.42869 115.80744 154.717555 113.027597 147.720792 113.027597 
C 140.72403 113.027597 134.012894 115.80744 129.065436 120.754899 
C 124.117978 125.702357 121.338134 132.413492 121.338134 139.410255 
C 121.338134 146.407018 124.117978 153.118153 129.065436 158.065611 
C 134.012894 163.01307 140.72403 165.792913 147.720792 165.792913 
L 147.720792 165.792913 
z
" clip-path="url(#pc23859a164)" style="fill: none; stroke: #000000; stroke-width: 0.8; stroke-linejoin: miter"/>
   </g>
   <g id="patch_4">
    <path d="M 147.720792 178.984242 
C 158.215936 178.984242 168.282639 174.814477 175.703827 167.393289 
C 183.125014 159.972102 187.294779 149.905399 187.294779 139.410255 
C 187.294779 128.915111 183.125014 118.848408 175.703827 111.42722 
C 168.282639 104.006033 158.215936 99.836268 147.720792 99.836268 
C 137.225648 99.836268 127.158945 104.006033 119.737758 111.42722 
C 112.31657 118.848408 108.146805 128.915111 108.146805 139.410255 
C 108.146805 149.905399 112.31657 159.972102 119.737758 167.393289 
C 127.158945 174.814477 137.225648 178.984242 147.720792 178.984242 
L 147.720792 178.984242 
z
" clip-path="url(#pc23859a164)" style="fill: none; stroke: #000000; stroke-width: 0.8; stroke-linejoin: miter"/>
   </g>
   <g id="patch_5">
    <path d="M 147.720792 192.175571 
C 161.714318 192.175571 175.136588 186.615884 185.031505 176.720968 
C 194.926422 166.826051 200.486108 153.40378 200.486108 139.410255 
C 200.486108 125.41673 194.926422 111.994459 185.031505 102.099542 
C 175.136588 92.204626 161.714318 86.644939 147.720792 86.644939 
C 133.727267 86.644939 120.304996 92.204626 110.41008 102.099542 
C 100.515163 111.994459 94.955476 125.41673 94.955476 139.410255 
C 94.955476 153.40378 100.515163 166.826051 110.41008 176.720968 
C 120.304996 186.615884 133.727267 192.175571 147.720792 192.175571 
L 147.720792 192.175571 
z
" clip-path="url(#pc23859a164)" style="fill: none; stroke: #000000; stroke-width: 0.8; stroke-linejoin: miter"/>
   </g>
   <g id="patch_6">
    <path d="M 147.720792 205.3669 
C 165.212699 205.3669 181.990537 198.417292 194.359183 186.048646 
C 206.727829 173.68 213.677437 156.902162 213.677437 139.410255 
C 213.677437 121.918348 206.727829 105.14051 194.359183 92.771864 
C 181.990537 80.403218 165.212699 73.45361 147.720792 73.45361 
C 130.228886 73.45361 113.451047 80.403218 101.082401 92.771864 
C 88.713755 105.14051 81.764147 121.918348 81.764147 139.410255 
C 81.764147 156.902162 88.713755 173.68 101.082401 186.048646 
C 113.451047 198.417292 130.228886 205.3669 147.720792 205.3669 
L 147.720792 205.3669 
z
" clip-path="url(#pc23859a164)" style="fill: none; stroke: #000000; stroke-width: 0.8; stroke-linejoin: miter"/>
   </g>
   <g id="patch_7">
    <path d="M 147.720792 218.558229 
C 168.71108 218.558229 188.844486 210.218699 203.686861 195.376324 
C 218.529236 180.533949 226.868766 160.400543 226.868766 139.410255 
C 226.868766 118.419967 218.529236 98.286561 203.686861 83.444186 
C 188.844486 68.601811 168.71108 60.262281 147.720792 60.262281 
C 126.730504 60.262281 106.597098 68.601811 91.754723 83.444186 
C 76.912348 98.286561 68.572818 118.419967 68.572818 139.410255 
C 68.572818 160.400543 76.912348 180.533949 91.754723 195.376324 
C 106.597098 210.218699 126.730504 218.558229 147.720792 218.558229 
L 147.720792 218.558229 
z
" clip-path="url(#pc23859a164)" style="fill: none; stroke: #000000; stroke-width: 0.8; stroke-linejoin: miter"/>
   </g>
   <g id="patch_8">
    <path d="M 147.720792 231.749558 
C 172.209462 231.749558 195.698435 222.020106 213.014539 204.704002 
C 230.330644 187.387898 240.060095 163.898924 240.060095 139.410255 
C 240.060095 114.921586 230.330644 91.432612 213.014539 74.116508 
C 195.698435 56.800404 172.209462 47.070952 147.720792 47.070952 
C 123.232123 47.070952 99.743149 56.800404 82.427045 74.116508 
C 65.110941 91.432612 55.381489 114.921586 55.381489 139.410255 
C 55.381489 163.898924 65.110941 187.387898 82.427045 204.704002 
C 99.743149 222.020106 123.232123 231.749558 147.720792 231.749558 
L 147.720792 231.749558 
z
" clip-path="url(#pc23859a164)" style="fill: none; stroke: #000000; stroke-width: 0.8; stroke-linejoin: miter"/>
   </g>
   <g id="patch_9">
    <path d="M 147.720792 244.940887 
C 175.707843 244.940887 202.552384 233.821514 222.342218 214.03168 
C 242.132051 194.241847 253.251424 167.397306 253.251424 139.410255 
C 253.251424 111.423204 242.132051 84.578663 222.342218 64.78883 
C 202.552384 44.998996 175.707843 33.879623 147.720792 33.879623 
C 119.733741 33.879623 92.8892 44.998996 73.099367 64.78883 
C 53.309533 84.578663 42.19016 111.423204 42.19016 139.410255 
C 42.19016 167.397306 53.309533 194.241847 73.099367 214.03168 
C 92.8892 233.821514 119.733741 244.940887 147.720792 244.940887 
L 147.720792 244.940887 
z
" clip-path="url(#pc23859a164)" style="fill: none; stroke: #000000; stroke-width: 0.8; stroke-linejoin: miter"/>
   </g>
   <g id="patch_10">
    <path d="M 147.720792 258.132216 
C 179.206224 258.132216 209.406333 245.622921 231.669896 223.359359 
C 253.933458 201.095796 266.442753 170.895687 266.442753 139.410255 
C 266.442753 107.924823 253.933458 77.724714 231.669896 55.461151 
C 209.406333 33.197589 179.206224 20.688294 147.720792 20.688294 
C 116.23536 20.688294 86.035251 33.197589 63.771689 55.461151 
C 41.508126 77.724714 28.998831 107.924823 28.998831 139.410255 
C 28.998831 170.895687 41.508126 201.095796 63.771689 223.359359 
C 86.035251 245.622921 116.23536 258.132216 147.720792 258.132216 
L 147.720792 258.132216 
z
" clip-path="url(#pc23859a164)" style="fill: none; stroke: #000000; stroke-width: 0.8; stroke-linejoin: miter"/>
   </g>
   <g id="patch_11">
    <path d="M 210.449289 159.791979 
C 212.588037 153.209589 213.677437 146.331389 213.677437 139.410255 
C 213.677437 132.48912 212.588037 125.610921 210.449289 119.028531 
L 197.90359 123.104876 
C 199.614588 128.370788 200.486108 133.873347 200.486108 139.410255 
C 200.486108 144.947163 199.614588 150.449722 197.90359 155.715634 
z
" clip-path="url(#pc23859a164)" style="fill: #cccccc"/>
   </g>
   <g id="line2d_1">
    <path d="M 147.720792 139.410255 
L 275.94051 139.410255 
" clip-path="url(#pc23859a164)" style="fill: none; stroke: #000000; stroke-width: 0.8; stroke-linecap: square"/>
   </g>
   <g id="line2d_2">
    <defs>
     <path id="ma6c2ee1cb1" d="M 0 1.6 
C 0.424325 1.6 0.831328 1.431414 1.131371 1.131371 
C 1.431414 0.831328 1.6 0.424325 1.6 0 
C 1.6 -0.424325 1.431414 -0.831328 1.131371 -1.131371 
C 0.831328 -1.431414 0.424325 -1.6 0 -1.6 
C -0.424325 -1.6 -0.831328 -1.431414 -1.131371 -1.131371 
C -1.431414 -0.831328 -1.6 -0.424325 -1.6 0 
C -1.6 0.424325 -1.431414 0.831328 -1.131371 1.131371 
C -0.831328 1.431414 -0.424325 1.6 0 1.6 
z
" style="stroke: #000000"/>
    </defs>
    <g clip-path="url(#pc23859a164)">
     <use xlink:href="#ma6c2ee1cb1" x="193.890444" y="139.410255" style="stroke: #000000"/>
    </g>
   </g>
   <g id="line2d_3">
    <g clip-path="url(#pc23859a164)">
     <use xlink:href="#ma6c2ee1cb1" x="207.081773" y="139.410255" style="stroke: #000000"/>
    </g>
   </g>
   <g id="line2d_4">
    <g clip-path="url(#pc23859a164)">
     <use xlink:href="#ma6c2ee1cb1" x="220.273102" y="139.410255" style="stroke: #000000"/>
    </g>
   </g>
   <g id="line2d_5">
    <path d="M 147.720792 139.410255 
L 147.720792 11.190537 
" clip-path="url(#pc23859a164)" style="fill: none; stroke: #000000; stroke-width: 0.8; stroke-linecap: square"/>
   </g>
   <g id="line2d_6">
    <path d="M 144.752743 126.218926 
L 150.688841 126.218926 
" clip-path="url(#pc23859a164)" style="fill: none; stroke: #000000; stroke-width: 0.7; stroke-linecap: square"/>
   </g>
   <g id="line2d_7">
    <path d="M 144.752743 113.027597 
L 150.688841 113.027597 
" clip-path="url(#pc23859a164)" style="fill: none; stroke: #000000; stroke-width: 0.7; stroke-linecap: square"/>
   </g>
   <g id="line2d_8">
    <path d="M 144.752743 73.45361 
L 150.688841 73.45361 
" clip-path="url(#pc23859a164)" style="fill: none; stroke: #000000; stroke-width: 0.7; stroke-linecap: square"/>
   </g>
   <g id="line2d_9">
    <path d="M 144.752743 33.879623 
L 150.688841 33.879623 
" clip-path="url(#pc23859a164)" style="fill: none; stroke: #000000; stroke-width: 0.7; stroke-linecap: square"/>
   </g>
   <g id="line2d_10">
    <path d="M 144.752743 20.688294 
L 150.688841 20.688294 
" clip-path="url(#pc23859a164)" style="fill: none; stroke: #000000; stroke-width: 0.7; stroke-linecap: square"/>
   </g>
   <g id="text_1">
    <!-- W -->
    <g transform="translate(188.452319 130.592891) scale(0.11 -0.11)">
     <defs>
      <path id="DejaVuSans-57" d="M 213 4666 
L 850 4666 
L 1831 722 
L 2809 4666 
L 3519 4666 
L 4500 722 
L 5478 4666 
L 6119 4666 
L 4947 0 
L 4153 0 
L 3169 4050 
L 2175 0 
L 1381 0 
L 213 4666 
z
" transform="scale(0.015625)"/>
     </defs>
     <use xlink:href="#DejaVuSans-57"/>
    </g>
   </g>
   <g id="text_2">
    <!-- P -->
    <g transform="translate(203.765444 130.592891) scale(0.11 -0.11)">
     <defs>
      <path id="DejaVuSans-50" d="M 1259 4147 
L 1259 2394 
L 2053 2394 
Q 2494 2394 2734 2622 
Q 2975 2850 2975 3272 
Q 2975 3691 2734 3919 
Q 2494 4147 2053 4147 
L 1259 4147 
z
M 628 4666 
L 2053 4666 
Q 2838 4666 3239 4311 
Q 3641 3956 3641 3272 
Q 3641 2581 3239 2228 
Q 2838 1875 2053 1875 
L 1259 1875 
L 1259 0 
L 628 0 
L 628 4666 
z
" transform="scale(0.015625)"/>
     </defs>
     <use xlink:href="#DejaVuSans-50"/>
    </g>
   </g>
   <g id="text_3">
    <!-- E -->
    <g transform="translate(216.797789 130.592891) scale(0.11 -0.11)">
     <defs>
      <path id="DejaVuSans-45" d="M 628 4666 
L 3578 4666 
L 3578 4134 
L 1259 4134 
L 1259 2753 
L 3481 2753 
L 3481 2222 
L 1259 2222 
L 1259 531 
L 3634 531 
L 3634 0 
L 628 0 
L 628 4666 
z
" transform="scale(0.015625)"/>
     </defs>
     <use xlink:href="#DejaVuSans-45"/>
    </g>
   </g>
   <g id="patch_12">
    <path d="M 150.506994 148.908012 
Q 177.403588 148.908012 204.300182 148.908012 
" style="fill: none; stroke: #000000; stroke-width: 0.7; stroke-linecap: round"/>
    <path d="M 154.506994 150.908012 
L 150.506994 148.908012 
L 154.506994 146.908012 
" style="fill: none; stroke: #000000; stroke-width: 0.7; stroke-linecap: round"/>
    <path d="M 200.300182 146.908012 
L 204.300182 148.908012 
L 200.300182 150.908012 
" style="fill: none; stroke: #000000; stroke-width: 0.7; stroke-linecap: round"/>
   </g>
   <g id="text_4">
    <!-- $r_P$ -->
    <g transform="translate(173.051282 164.223377) scale(0.1 -0.1)">
     <defs>
      <path id="DejaVuSans-Oblique-72" d="M 2853 2969 
Q 2766 3016 2653 3041 
Q 2541 3066 2413 3066 
Q 1953 3066 1609 2717 
Q 1266 2369 1153 1784 
L 800 0 
L 225 0 
L 909 3500 
L 1484 3500 
L 1375 2956 
Q 1603 3259 1920 3421 
Q 2238 3584 2597 3584 
Q 2691 3584 2781 3573 
Q 2872 3563 2963 3538 
L 2853 2969 
z
" transform="scale(0.015625)"/>
      <path id="DejaVuSans-Oblique-50" d="M 1081 4666 
L 2541 4666 
Q 3178 4666 3512 4369 
Q 3847 4072 3847 3500 
Q 3847 2731 3353 2303 
Q 2859 1875 1966 1875 
L 1172 1875 
L 806 0 
L 172 0 
L 1081 4666 
z
M 1613 4147 
L 1275 2394 
L 2069 2394 
Q 2606 2394 2893 2669 
Q 3181 2944 3181 3456 
Q 3181 3784 2986 3965 
Q 2791 4147 2438 4147 
L 1613 4147 
z
" transform="scale(0.015625)"/>
     </defs>
     <use xlink:href="#DejaVuSans-Oblique-72"/>
     <use xlink:href="#DejaVuSans-Oblique-50" transform="translate(41.113281 -16.40625) scale(0.7)"/>
    </g>
   </g>
   <g id="text_5">
    <!-- 1 -->
    <g transform="translate(133.047755 128.978301) scale(0.1 -0.1)">
     <defs>
      <path id="DejaVuSans-31" d="M 794 531 
L 1825 531 
L 1825 4091 
L 703 3866 
L 703 4441 
L 1819 4666 
L 2450 4666 
L 2450 531 
L 3481 531 
L 3481 0 
L 794 0 
L 794 531 
z
" transform="scale(0.015625)"/>
     </defs>
     <use xlink:href="#DejaVuSans-31"/>
    </g>
   </g>
   <g id="text_6">
    <!-- 2 -->
    <g transform="translate(133.047755 115.786972) scale(0.1 -0.1)">
     <defs>
      <path id="DejaVuSans-32" d="M 1228 531 
L 3431 531 
L 3431 0 
L 469 0 
L 469 531 
Q 828 903 1448 1529 
Q 2069 2156 2228 2338 
Q 2531 2678 2651 2914 
Q 2772 3150 2772 3378 
Q 2772 3750 2511 3984 
Q 2250 4219 1831 4219 
Q 1534 4219 1204 4116 
Q 875 4013 500 3803 
L 500 4441 
Q 881 4594 1212 4672 
Q 1544 4750 1819 4750 
Q 2544 4750 2975 4387 
Q 3406 4025 3406 3419 
Q 3406 3131 3298 2873 
Q 3191 2616 2906 2266 
Q 2828 2175 2409 1742 
Q 1991 1309 1228 531 
z
" transform="scale(0.015625)"/>
     </defs>
     <use xlink:href="#DejaVuSans-32"/>
    </g>
   </g>
   <g id="text_7">
    <!-- $i$ -->
    <g transform="translate(136.610255 76.212985) scale(0.1 -0.1)">
     <defs>
      <path id="DejaVuSans-Oblique-69" d="M 1172 4863 
L 1747 4863 
L 1606 4134 
L 1031 4134 
L 1172 4863 
z
M 909 3500 
L 1484 3500 
L 800 0 
L 225 0 
L 909 3500 
z
" transform="scale(0.015625)"/>
     </defs>
     <use xlink:href="#DejaVuSans-Oblique-69" transform="translate(0 0.015625)"/>
    </g>
   </g>
   <g id="text_8">
    <!-- $N-1$ -->
    <g transform="translate(113.210255 36.638998) scale(0.1 -0.1)">
     <defs>
      <path id="DejaVuSans-Oblique-4e" d="M 1081 4666 
L 1931 4666 
L 3219 666 
L 4000 4666 
L 4616 4666 
L 3706 0 
L 2853 0 
L 1569 4025 
L 788 0 
L 172 0 
L 1081 4666 
z
" transform="scale(0.015625)"/>
      <path id="DejaVuSans-2212" d="M 678 2272 
L 4684 2272 
L 4684 1741 
L 678 1741 
L 678 2272 
z
" transform="scale(0.015625)"/>
     </defs>
     <use xlink:href="#DejaVuSans-Oblique-4e" transform="translate(0 0.09375)"/>
     <use xlink:href="#DejaVuSans-2212" transform="translate(94.287109 0.09375)"/>
     <use xlink:href="#DejaVuSans-31" transform="translate(197.558594 0.09375)"/>
    </g>
   </g>
   <g id="text_9">
    <!-- $N$ -->
    <g transform="translate(131.910255 23.447669) scale(0.1 -0.1)">
     <use xlink:href="#DejaVuSans-Oblique-4e" transform="translate(0 0.09375)"/>
    </g>
   </g>
   <g id="patch_13">
    <path d="M 150.618797 175.026843 
Q 207.084431 175.026843 263.550065 175.026843 
" style="fill: none; stroke: #000000; stroke-width: 0.8; stroke-linecap: round"/>
    <path d="M 154.618797 177.026843 
L 150.618797 175.026843 
L 154.618797 173.026843 
" style="fill: none; stroke: #000000; stroke-width: 0.8; stroke-linecap: round"/>
    <path d="M 259.550065 173.026843 
L 263.550065 175.026843 
L 259.550065 177.026843 
" style="fill: none; stroke: #000000; stroke-width: 0.8; stroke-linecap: round"/>
   </g>
   <g id="text_10">
    <!-- $R$ -->
    <g transform="translate(203.231773 189.321222) scale(0.11 -0.11)">
     <defs>
      <path id="DejaVuSans-Oblique-52" d="M 1613 4147 
L 1294 2491 
L 2106 2491 
Q 2584 2491 2879 2755 
Q 3175 3019 3175 3444 
Q 3175 3784 2976 3965 
Q 2778 4147 2406 4147 
L 1613 4147 
z
M 2772 2241 
Q 2972 2194 3105 2009 
Q 3238 1825 3413 1275 
L 3809 0 
L 3144 0 
L 2778 1197 
Q 2638 1659 2453 1815 
Q 2269 1972 1888 1972 
L 1191 1972 
L 806 0 
L 172 0 
L 1081 4666 
L 2503 4666 
Q 3150 4666 3495 4373 
Q 3841 4081 3841 3531 
Q 3841 3044 3547 2687 
Q 3253 2331 2772 2241 
z
" transform="scale(0.015625)"/>
     </defs>
     <use xlink:href="#DejaVuSans-Oblique-52" transform="translate(0 0.09375)"/>
    </g>
   </g>
   <g id="patch_14">
    <path d="M 256.034003 153.65689 
Q 259.848422 153.65689 263.662841 153.65689 
" style="fill: none; stroke: #000000; stroke-width: 0.7; stroke-linecap: round"/>
    <path d="M 260.034003 155.65689 
L 256.034003 153.65689 
L 260.034003 151.65689 
" style="fill: none; stroke: #000000; stroke-width: 0.7; stroke-linecap: round"/>
    <path d="M 259.662841 151.65689 
L 263.662841 153.65689 
L 259.662841 155.65689 
" style="fill: none; stroke: #000000; stroke-width: 0.7; stroke-linecap: round"/>
   </g>
   <g id="text_11">
    <!-- $\Delta r$ -->
    <g transform="translate(254.347089 167.191426) scale(0.1 -0.1)">
     <defs>
      <path id="DejaVuSans-394" d="M 2188 4044 
L 906 525 
L 3472 525 
L 2188 4044 
z
M 50 0 
L 1831 4666 
L 2547 4666 
L 4325 0 
L 50 0 
z
" transform="scale(0.015625)"/>
     </defs>
     <use xlink:href="#DejaVuSans-394" transform="translate(0 0.09375)"/>
     <use xlink:href="#DejaVuSans-Oblique-72" transform="translate(68.408203 0.09375)"/>
    </g>
   </g>
   <g id="text_12">
    <!-- (a) -->
    <g transform="translate(139.362042 295.743611) scale(0.12 -0.12)">
     <defs>
      <path id="DejaVuSans-28" d="M 1984 4856 
Q 1566 4138 1362 3434 
Q 1159 2731 1159 2009 
Q 1159 1288 1364 580 
Q 1569 -128 1984 -844 
L 1484 -844 
Q 1016 -109 783 600 
Q 550 1309 550 2009 
Q 550 2706 781 3412 
Q 1013 4119 1484 4856 
L 1984 4856 
z
" transform="scale(0.015625)"/>
      <path id="DejaVuSans-61" d="M 2194 1759 
Q 1497 1759 1228 1600 
Q 959 1441 959 1056 
Q 959 750 1161 570 
Q 1363 391 1709 391 
Q 2188 391 2477 730 
Q 2766 1069 2766 1631 
L 2766 1759 
L 2194 1759 
z
M 3341 1997 
L 3341 0 
L 2766 0 
L 2766 531 
Q 2569 213 2275 61 
Q 1981 -91 1556 -91 
Q 1019 -91 701 211 
Q 384 513 384 1019 
Q 384 1609 779 1909 
Q 1175 2209 1959 2209 
L 2766 2209 
L 2766 2266 
Q 2766 2663 2505 2880 
Q 2244 3097 1772 3097 
Q 1472 3097 1187 3025 
Q 903 2953 641 2809 
L 641 3341 
Q 956 3463 1253 3523 
Q 1550 3584 1831 3584 
Q 2591 3584 2966 3190 
Q 3341 2797 3341 1997 
z
" transform="scale(0.015625)"/>
      <path id="DejaVuSans-29" d="M 513 4856 
L 1013 4856 
Q 1481 4119 1714 3412 
Q 1947 2706 1947 2009 
Q 1947 1309 1714 600 
Q 1481 -109 1013 -844 
L 513 -844 
Q 928 -128 1133 580 
Q 1338 1288 1338 2009 
Q 1338 2731 1133 3434 
Q 928 4138 513 4856 
z
" transform="scale(0.015625)"/>
     </defs>
     <use xlink:href="#DejaVuSans-28"/>
     <use xlink:href="#DejaVuSans-61" transform="translate(39.013672 0)"/>
     <use xlink:href="#DejaVuSans-29" transform="translate(100.292969 0)"/>
    </g>
   </g>
  </g>
  <g id="axes_2">
   <g id="patch_15">
    <path d="M 444.243332 194.264892 
C 455.230324 177.976006 461.102411 158.769277 461.102411 139.12133 
C 461.102411 119.473383 455.230324 100.266654 444.243332 83.977767 
L 421.868637 99.06969 
C 429.848663 110.900565 434.113652 124.850716 434.113652 139.12133 
C 434.113652 153.391944 429.848663 167.342095 421.868637 179.17297 
L 444.243332 194.264892 
z
" clip-path="url(#pb2fe23d30a)" style="fill: none; stroke: #000000; stroke-width: 0.8; stroke-linejoin: miter"/>
   </g>
   <g id="patch_16">
    <path d="M 501.9012 233.155615 
C 520.636913 205.378778 530.650366 172.62625 530.650366 139.12133 
C 530.650366 105.61641 520.636913 72.863882 501.9012 45.087045 
L 444.243332 83.977767 
C 455.230324 100.266654 461.102411 119.473383 461.102411 139.12133 
C 461.102411 158.769277 455.230324 177.976006 444.243332 194.264892 
z
" clip-path="url(#pb2fe23d30a)" style="fill: #cccccc; stroke: #000000; stroke-width: 0.9; stroke-linejoin: miter"/>
   </g>
   <g id="patch_17">
    <path d="M 529.439286 251.730289 
C 551.875881 218.466669 563.8673 179.244505 563.8673 139.12133 
C 563.8673 98.998154 551.875881 59.775991 529.439286 26.512371 
L 501.9012 45.087045 
C 520.636913 72.863882 530.650366 105.61641 530.650366 139.12133 
C 530.650366 172.62625 520.636913 205.378778 501.9012 233.155615 
L 529.439286 251.730289 
z
" clip-path="url(#pb2fe23d30a)" style="fill: none; stroke: #000000; stroke-width: 0.8; stroke-linejoin: miter"/>
   </g>
   <g id="line2d_11">
    <path d="M 362.489639 139.12133 
L 585.665912 139.12133 
" clip-path="url(#pb2fe23d30a)" style="fill: none; stroke-dasharray: 2.59,1.12; stroke-dashoffset: 0; stroke: #000000; stroke-width: 0.7"/>
   </g>
   <g id="line2d_12">
    <path d="M 362.489639 139.12133 
L 534.602677 255.21304 
" clip-path="url(#pb2fe23d30a)" style="fill: none; stroke-dasharray: 0.7,1.155; stroke-dashoffset: 0; stroke: #000000; stroke-width: 0.7"/>
   </g>
   <g id="line2d_13">
    <path d="M 362.489639 139.12133 
L 534.602677 23.02962 
" clip-path="url(#pb2fe23d30a)" style="fill: none; stroke-dasharray: 0.7,1.155; stroke-dashoffset: 0; stroke: #000000; stroke-width: 0.7"/>
   </g>
   <g id="line2d_14">
    <g clip-path="url(#pb2fe23d30a)">
     <use xlink:href="#ma6c2ee1cb1" x="447.608032" y="139.12133" style="stroke: #000000"/>
    </g>
   </g>
   <g id="line2d_15">
    <g clip-path="url(#pb2fe23d30a)">
     <use xlink:href="#ma6c2ee1cb1" x="495.357374" y="139.12133" style="stroke: #000000"/>
    </g>
   </g>
   <g id="line2d_16">
    <g clip-path="url(#pb2fe23d30a)">
     <use xlink:href="#ma6c2ee1cb1" x="547.258833" y="139.12133" style="stroke: #000000"/>
    </g>
   </g>
   <g id="text_13">
    <!-- W -->
    <g transform="translate(442.169907 127.491411) scale(0.11 -0.11)">
     <use xlink:href="#DejaVuSans-57"/>
    </g>
   </g>
   <g id="text_14">
    <!-- P -->
    <g transform="translate(492.041046 127.491411) scale(0.11 -0.11)">
     <use xlink:href="#DejaVuSans-50"/>
    </g>
   </g>
   <g id="text_15">
    <!-- E -->
    <g transform="translate(543.78352 127.491411) scale(0.11 -0.11)">
     <use xlink:href="#DejaVuSans-45"/>
    </g>
   </g>
   <g id="text_16">
    <!-- $w$ -->
    <g transform="translate(447.35742 79.825651) scale(0.1 -0.1)">
     <defs>
      <path id="DejaVuSans-Oblique-77" d="M 544 3500 
L 1113 3500 
L 1259 684 
L 2566 3500 
L 3231 3500 
L 3425 684 
L 4666 3500 
L 5241 3500 
L 3641 0 
L 2969 0 
L 2797 2900 
L 1459 0 
L 781 0 
L 544 3500 
z
" transform="scale(0.015625)"/>
     </defs>
     <use xlink:href="#DejaVuSans-Oblique-77" transform="translate(0 0.3125)"/>
    </g>
   </g>
   <g id="text_17">
    <!-- $e$ -->
    <g transform="translate(505.015287 40.934928) scale(0.1 -0.1)">
     <defs>
      <path id="DejaVuSans-Oblique-65" d="M 3078 2063 
Q 3088 2113 3092 2166 
Q 3097 2219 3097 2272 
Q 3097 2653 2873 2875 
Q 2650 3097 2266 3097 
Q 1838 3097 1509 2826 
Q 1181 2556 1013 2059 
L 3078 2063 
z
M 3578 1613 
L 903 1613 
Q 884 1494 878 1425 
Q 872 1356 872 1306 
Q 872 872 1139 634 
Q 1406 397 1894 397 
Q 2269 397 2603 481 
Q 2938 566 3225 728 
L 3116 159 
Q 2806 34 2476 -28 
Q 2147 -91 1806 -91 
Q 1078 -91 686 257 
Q 294 606 294 1247 
Q 294 1794 489 2264 
Q 684 2734 1063 3103 
Q 1306 3334 1642 3459 
Q 1978 3584 2356 3584 
Q 2950 3584 3301 3228 
Q 3653 2872 3653 2272 
Q 3653 2128 3634 1964 
Q 3616 1800 3578 1613 
z
" transform="scale(0.015625)"/>
     </defs>
     <use xlink:href="#DejaVuSans-Oblique-65"/>
    </g>
   </g>
   <g id="patch_18">
    <path d="M 365.217627 151.57768 
Q 411.795693 151.57768 458.37376 151.57768 
" style="fill: none; stroke: #000000; stroke-width: 0.65; stroke-linecap: round"/>
    <path d="M 369.217627 153.57768 
L 365.217627 151.57768 
L 369.217627 149.57768 
" style="fill: none; stroke: #000000; stroke-width: 0.65; stroke-linecap: round"/>
    <path d="M 454.37376 149.57768 
L 458.37376 151.57768 
L 454.37376 153.57768 
" style="fill: none; stroke: #000000; stroke-width: 0.65; stroke-linecap: round"/>
   </g>
   <g id="text_18">
    <!-- $r_w$ -->
    <g transform="translate(406.951025 165.024371) scale(0.095 -0.095)">
     <use xlink:href="#DejaVuSans-Oblique-72"/>
     <use xlink:href="#DejaVuSans-Oblique-77" transform="translate(41.113281 -16.40625) scale(0.7)"/>
    </g>
   </g>
   <g id="patch_19">
    <path d="M 365.215378 161.957972 
Q 428.922569 161.957972 492.62976 161.957972 
" style="fill: none; stroke: #000000; stroke-width: 0.65; stroke-linecap: round"/>
    <path d="M 369.215378 163.957972 
L 365.215378 161.957972 
L 369.215378 159.957972 
" style="fill: none; stroke: #000000; stroke-width: 0.65; stroke-linecap: round"/>
    <path d="M 488.62976 159.957972 
L 492.62976 161.957972 
L 488.62976 163.957972 
" style="fill: none; stroke: #000000; stroke-width: 0.65; stroke-linecap: round"/>
   </g>
   <g id="text_19">
    <!-- $r_P$ -->
    <g transform="translate(424.791006 175.404662) scale(0.095 -0.095)">
     <use xlink:href="#DejaVuSans-Oblique-72"/>
     <use xlink:href="#DejaVuSans-Oblique-50" transform="translate(41.113281 -16.40625) scale(0.7)"/>
    </g>
   </g>
   <g id="patch_20">
    <path d="M 365.21522 151.57768 
Q 446.569205 151.57768 527.92319 151.57768 
" style="fill: none; stroke: #000000; stroke-width: 0.65; stroke-linecap: round"/>
    <path d="M 369.21522 153.57768 
L 365.21522 151.57768 
L 369.21522 149.57768 
" style="fill: none; stroke: #000000; stroke-width: 0.65; stroke-linecap: round"/>
    <path d="M 523.92319 149.57768 
L 527.92319 151.57768 
L 523.92319 153.57768 
" style="fill: none; stroke: #000000; stroke-width: 0.65; stroke-linecap: round"/>
   </g>
   <g id="text_20">
    <!-- $r_e$ -->
    <g transform="translate(442.437502 165.024371) scale(0.095 -0.095)">
     <use xlink:href="#DejaVuSans-Oblique-72"/>
     <use xlink:href="#DejaVuSans-Oblique-65" transform="translate(41.113281 -16.40625) scale(0.7)"/>
    </g>
   </g>
   <g id="patch_21">
    <path d="M 455.118334 180.362282 
Q 484.344387 193.374559 513.57044 206.386836 
" style="fill: none; stroke: #000000; stroke-width: 0.7; stroke-linecap: round"/>
    <path d="M 457.959042 183.816319 
L 455.118334 180.362282 
L 459.585989 180.162137 
" style="fill: none; stroke: #000000; stroke-width: 0.7; stroke-linecap: round"/>
    <path d="M 510.729731 202.932799 
L 513.57044 206.386836 
L 509.102785 206.586981 
" style="fill: none; stroke: #000000; stroke-width: 0.7; stroke-linecap: round"/>
   </g>
   <g id="text_21">
    <!-- $\Delta r$ -->
    <g transform="translate(487.458586 198.564754) scale(0.095 -0.095)">
     <use xlink:href="#DejaVuSans-394" transform="translate(0 0.09375)"/>
     <use xlink:href="#DejaVuSans-Oblique-72" transform="translate(68.408203 0.09375)"/>
    </g>
   </g>
   <g id="text_22">
    <!-- (b) -->
    <g transform="translate(457.801619 287.335365) scale(0.12 -0.12)">
     <defs>
      <path id="DejaVuSans-62" d="M 3116 1747 
Q 3116 2381 2855 2742 
Q 2594 3103 2138 3103 
Q 1681 3103 1420 2742 
Q 1159 2381 1159 1747 
Q 1159 1113 1420 752 
Q 1681 391 2138 391 
Q 2594 391 2855 752 
Q 3116 1113 3116 1747 
z
M 1159 2969 
Q 1341 3281 1617 3432 
Q 1894 3584 2278 3584 
Q 2916 3584 3314 3078 
Q 3713 2572 3713 1747 
Q 3713 922 3314 415 
Q 2916 -91 2278 -91 
Q 1894 -91 1617 61 
Q 1341 213 1159 525 
L 1159 0 
L 581 0 
L 581 4863 
L 1159 4863 
L 1159 2969 
z
" transform="scale(0.015625)"/>
     </defs>
     <use xlink:href="#DejaVuSans-28"/>
     <use xlink:href="#DejaVuSans-62" transform="translate(39.013672 0)"/>
     <use xlink:href="#DejaVuSans-29" transform="translate(102.490234 0)"/>
    </g>
   </g>
  </g>
 </g>
 <defs>
  <clipPath id="pc23859a164">
   <rect x="2.88" y="2.88" width="293.243243" height="293.243243"/>
  </clipPath>
  <clipPath id="pb2fe23d30a">
   <rect x="354.185405" y="12.48177" width="234.594595" height="274.039703"/>
  </clipPath>
 </defs>
</svg>
